<svg width="24" height="24" viewBox="0 0 24 24" fill="none" xmlns="http://www.w3.org/2000/svg">
<path d="M21.0002 9H19.5802L15.8682 2.504L14.1322 3.496L17.2772 9H6.72322L9.86922 3.496L8.13222 2.504L4.42022 9H3.00022C2.68822 9 2.39522 9.146 2.20522 9.393C2.01622 9.641 1.95322 9.963 2.03522 10.263L4.83422 20.527C5.07122 21.395 5.86522 22 6.76422 22H17.2372C18.1352 22 18.9292 21.395 19.1672 20.525L21.9662 10.262C22.0482 9.962 21.9862 9.64 21.7962 9.392C21.6052 9.146 21.3122 9 21.0002 9ZM17.2362 20V21V20H6.76422L4.31022 11H19.6902L17.2362 20Z" fill="#FE9015"/>
<path d="M9 13H11V18H9V13ZM13 13H15V18H13V13Z" fill="#FE9015"/>
</svg>
