<svg width="60" height="60" viewBox="0 0 60 60" fill="none" xmlns="http://www.w3.org/2000/svg">
<g clip-path="url(#clip0_447_1548)">
<path d="M46.0011 39.3184C45.1384 36.4423 45.1384 33.4016 46.0011 30.5255L47.9345 24.081C49.2354 19.7447 48.3281 15.0416 45.5077 11.5005C44.8418 10.6643 43.914 10.1127 42.8863 9.92051V4.39453C42.8863 1.97133 40.9149 0 38.4917 0H21.5089C19.0857 0 17.1144 1.97133 17.1144 4.39453V9.92051C16.0865 10.1127 15.1588 10.6643 14.493 11.5004C11.6725 15.0416 10.7652 19.7446 12.0661 24.081L13.9995 30.5255C14.8622 33.4016 14.8622 36.4423 13.9995 39.3184L12.0661 45.7629C11.9267 46.2279 12.1905 46.7179 12.6554 46.8573C13.1204 46.9969 13.6102 46.733 13.7498 46.2681L15.6831 39.8235C16.645 36.6169 16.645 33.227 15.6831 30.0204L13.7498 23.5759C12.6145 19.7912 13.4062 15.6864 15.8679 12.5957C16.371 11.964 17.1227 11.6017 17.9303 11.6017H42.0703C42.8779 11.6017 43.6296 11.964 44.1328 12.5958C46.5944 15.6865 47.3863 19.7912 46.2508 23.5759L44.3175 30.0205C43.3556 33.2271 43.3556 36.617 44.3175 39.8236L46.2508 46.2681C47.3861 50.0528 46.5944 54.1576 44.1327 57.2483C43.6296 57.88 42.8779 58.2423 42.0703 58.2423H17.9303C17.1227 58.2423 16.371 57.88 15.8678 57.2483C14.1333 55.0705 13.2009 52.3379 13.2422 49.5538C13.2495 49.0684 12.8619 48.6691 12.3765 48.662C11.8859 48.6548 11.4917 49.0424 11.4847 49.5278C11.4373 52.7175 12.5056 55.8484 14.4929 58.3434C15.3313 59.3964 16.5843 60.0002 17.9303 60.0002H42.0703C43.4163 60.0002 44.6693 59.3964 45.5076 58.3436C48.3281 54.8024 49.2354 50.0994 47.9345 45.763L46.0011 39.3184ZM25.8987 1.75781H34.1019V3.38109C34.1019 3.77836 33.7787 4.10156 33.3814 4.10156H26.6192C26.2218 4.10156 25.8987 3.77836 25.8987 3.38109V1.75781ZM41.1284 9.84375H18.8722V4.39453C18.8722 2.94059 20.0551 1.75781 21.5089 1.75781H24.1409V3.38109C24.1409 4.74762 25.2527 5.85938 26.6192 5.85938H33.3813C34.7478 5.85938 35.8596 4.74762 35.8596 3.38109V1.75781H38.4916C39.9454 1.75781 41.1283 2.94059 41.1283 4.39453L41.1284 9.84375Z" fill="#FE9015"/>
<path fill-rule="evenodd" clip-rule="evenodd" d="M34.067 28.5933L32.9267 27.9958C32.0694 27.5465 31.0722 27.2861 30.0047 27.2861C28.9355 27.2861 27.9314 27.5473 27.0756 27.9958L25.9357 28.5931L24 27.0882V32.4096C24 35.3977 26.5946 38 30 38C33.4054 38 36 35.3977 36 32.4096V27.0896L34.067 28.5933ZM38 23V32.4096C38 36.6016 34.4079 40 30 40C25.5921 40 22 36.6016 22 32.4096V23L26.1473 26.2243C27.2879 25.6266 28.6103 25.2861 30.0047 25.2861C31.3991 25.2861 32.7145 25.6266 33.8551 26.2243L38 23Z" fill="#FE9015"/>
</g>
<defs>
<clipPath id="clip0_447_1548">
<rect width="60" height="60" fill="white"/>
</clipPath>
</defs>
</svg>
