<svg width="57" height="60" viewBox="0 0 57 60" fill="none" xmlns="http://www.w3.org/2000/svg">
<path d="M21.767 9.73009C16.3087 14.3065 15.016 21.7312 14.7204 25.0382L14.6398 25.9354L13.6881 25.9215C12.7995 25.9088 10.9086 26.0576 8.90953 26.4161C6.88244 26.7796 4.93024 27.3277 3.80579 28.0332L3.23642 28.3897L11.8255 37.7957L12.248 37.3283L12.2487 37.3277C13.1215 36.3587 13.9464 34.5397 14.5882 32.6192C15.221 30.7259 15.6196 28.9126 15.7121 28.0786L15.8105 27.1831L16.7632 27.2153C20.2719 27.3327 28.2243 27.0052 33.6826 22.4292C37.744 19.0242 38.9504 15.8437 39.2779 13.8549C39.6773 11.4277 39.033 9.14789 37.6944 7.72127C36.3582 6.29734 34.0417 5.42126 31.4438 5.50558C29.3139 5.57478 25.8272 6.32605 21.767 9.73009Z" stroke="#FE9015" stroke-width="2"/>
<path d="M35.171 50.2699C40.6293 45.6935 41.922 38.2688 42.2175 34.9618L42.2982 34.0646L43.2499 34.0785C44.1384 34.0912 46.0294 33.9424 48.0285 33.5839C50.0555 33.2204 52.0077 32.6723 53.1322 31.9668L53.7016 31.6103L45.1125 22.2043L44.69 22.6717L44.6893 22.6723C43.8165 23.6413 42.9916 25.4603 42.3498 27.3808C41.717 29.2741 41.3184 31.0874 41.2259 31.9214L41.1275 32.8169L40.1748 32.7847C36.666 32.6673 28.7137 32.9948 23.2553 37.5708C19.194 40.9758 17.9876 44.1563 17.6601 46.1451C17.2607 48.5722 17.905 50.8521 19.2436 52.2787C20.5798 53.7027 22.8963 54.5787 25.4942 54.4944C27.6241 54.4252 31.1108 53.6739 35.171 50.2699Z" stroke="#FE9015" stroke-width="2"/>
<path d="M32.3286 10.4305C32.9442 9.91455 33.8761 9.97373 34.4109 10.5437C34.9458 11.1137 34.8966 11.9953 34.2811 12.5115C33.6655 13.0276 32.7337 12.9684 32.1988 12.3983C31.664 11.8283 31.713 10.9467 32.3286 10.4305Z" stroke="#FE9015" stroke-width="2"/>
<path d="M24.6094 49.5695C23.9938 50.0854 23.0619 50.0263 22.5271 49.4563C21.9922 48.8863 22.0414 48.0047 22.6569 47.4885C23.2725 46.9724 24.2043 47.0316 24.7392 47.6017C25.274 48.1717 25.225 49.0533 24.6094 49.5695Z" stroke="#FE9015" stroke-width="2"/>
</svg>
