<svg width="60" height="60" viewBox="0 0 60 60" fill="none" xmlns="http://www.w3.org/2000/svg">
<path d="M55.0976 16.0731H50.4342C49.9358 16.0731 49.5317 16.5104 49.5317 17.0499C49.5317 17.0993 49.5292 17.148 49.5282 17.1972H43.299V14.4657C45.5581 14.0063 47.2726 11.8549 47.2726 9.27817C47.2726 6.3677 45.0852 4 42.3966 4C39.7079 4 37.5205 6.36782 37.5205 9.27817C37.5205 9.8176 37.9245 10.255 38.4229 10.255C38.9212 10.255 39.3253 9.8176 39.3253 9.27817C39.3253 7.44496 40.7031 5.95364 42.3966 5.95364C44.0901 5.95364 45.4678 7.44508 45.4678 9.27817C45.4678 11.1113 44.09 12.6026 42.3966 12.6026C41.8982 12.6026 41.4941 13.04 41.4941 13.5794V17.1971H36.1245C36.1225 17.1239 36.1194 17.051 36.1194 16.9772C36.1194 16.4378 35.7153 16.0004 35.217 16.0004H19.0346C17.1268 16.0004 15.2664 16.3853 13.5053 17.1442C13.2695 17.2458 13.0842 17.4503 12.9947 17.7072C12.9052 17.9643 12.9198 18.2503 13.035 18.4951C13.2823 19.0204 13.4076 19.5865 13.4076 20.1779C13.4076 22.2267 11.8678 23.8934 9.97512 23.8934C9.18705 23.8934 8.44548 23.6114 7.83078 23.0779C7.6331 22.9063 7.37788 22.8328 7.12743 22.8748C6.87709 22.917 6.65457 23.0712 6.51443 23.2998C4.8696 25.9826 4 29.1045 4 32.3285V54.7977C4 55.3371 4.40407 55.7745 4.90241 55.7745H12.3993C12.8976 55.7745 13.3017 55.3371 13.3017 54.7977V41.4187C13.3037 41.3925 13.3047 41.3658 13.3047 41.3391C13.3047 40.0794 14.2568 38.9743 15.3422 38.9743H15.4892C16.5937 38.9743 17.5268 40.0208 17.5268 41.2595V55.0232C17.5268 55.5626 17.9309 56 18.4292 56H25.9259C26.4242 56 26.8283 55.5626 26.8283 55.0232V42.2493L31.7018 43.6888V54.7976C31.7018 55.337 32.1059 55.7744 32.6042 55.7744H40.101C40.5994 55.7744 41.0034 55.337 41.0034 54.7976V45.7156C41.0054 45.6891 41.0064 45.6622 41.0064 45.6352C41.0064 44.3756 41.9585 43.2706 43.044 43.2706H44.6609C45.7653 43.2706 46.6984 44.317 46.6984 45.5557V55.0232C46.6984 55.5626 47.1025 56 47.6008 56H55.0976C55.5959 56 56 55.5626 56 55.0232V17.0499C56 16.5104 55.596 16.0731 55.0976 16.0731ZM49.2434 19.1508C48.4097 22.1185 45.8586 24.2846 42.8482 24.2846C39.8346 24.2846 37.2775 22.122 36.4234 19.1508H49.2434ZM5.80482 53.8208V50.0909H11.4969V53.8208H5.80482ZM19.3316 54.0464V50.0909H25.0235V54.0464H19.3316ZM25.0235 48.1373H19.3316V41.2595C19.3316 40.8144 19.2688 40.3853 19.1529 39.9821L25.0235 41.7161V48.1373ZM33.5067 50.0853L39.1986 50.0909V53.8208H33.5067V50.0853ZM33.5067 48.1373V36.2473C33.5067 35.7079 33.1026 35.2705 32.6042 35.2705C32.1059 35.2705 31.7018 35.7079 31.7018 36.2473V41.6637C31.7018 41.6637 20.3782 38.4109 16.6335 37.2127C16.2696 37.0963 15.8875 37.0207 15.4892 37.0207H15.3422C13.2864 37.0207 11.5454 38.9475 11.5007 41.2484C11.4982 41.2783 11.4969 41.3085 11.4969 41.3391V48.1373H5.80482V32.3285C5.80482 29.8133 6.40582 27.3688 7.5504 25.2016C8.29494 25.6222 9.12919 25.8474 9.97522 25.8474C12.863 25.8474 15.2125 23.3042 15.2125 20.1782C15.2125 19.6482 15.1463 19.1311 15.0153 18.632C16.3098 18.182 17.6579 17.9544 19.0346 17.9544H34.3619C34.5658 20.0432 35.4212 21.9874 36.8221 23.5097C38.2713 25.0845 40.138 26.0236 42.139 26.2042V36.695C42.139 37.2345 42.5431 37.6718 43.0414 37.6718C43.5397 37.6718 43.9438 37.2345 43.9438 36.695V26.1602C47.8139 25.6176 50.8754 22.2446 51.289 18.0269H54.1952V48.1375H48.5032V45.5559C48.5032 43.2187 46.7795 41.3172 44.6609 41.3172H43.044C40.9884 41.3172 39.2477 43.2435 39.2024 45.544C39.1999 45.5741 39.1985 45.6045 39.1985 45.6355V48.1375H33.5067V48.1373ZM48.5033 54.0464V50.0909H54.1952V54.0464H48.5033Z" fill="#FE9015"/>
<path d="M46.5147 29.9941H47.2894C47.7877 29.9941 48.1918 29.5567 48.1918 29.0173C48.1918 28.4778 47.7877 28.0404 47.2894 28.0404H46.5147C46.0164 28.0404 45.6123 28.4778 45.6123 29.0173C45.6123 29.5567 46.0164 29.9941 46.5147 29.9941Z" fill="#FE9015"/>
<path d="M48.1918 33.8219C48.1918 33.2825 47.7877 32.8451 47.2894 32.8451H46.5147C46.0164 32.8451 45.6123 33.2825 45.6123 33.8219C45.6123 34.3614 46.0164 34.7988 46.5147 34.7988H47.2894C47.7879 34.7988 48.1918 34.3615 48.1918 33.8219Z" fill="#FE9015"/>
</svg>
