<svg width="58" height="35" viewBox="0 0 58 35" fill="none" xmlns="http://www.w3.org/2000/svg">
<path fill-rule="evenodd" clip-rule="evenodd" d="M9.46941 0H47.4215L57.3834 12.5696L50.7849 34.2188H7.50767L7.28669 34.0878C7.11036 33.9834 6.99653 33.8457 6.94275 33.7765C6.87704 33.692 6.82002 33.6016 6.77195 33.5186C6.67531 33.3518 6.57593 33.1465 6.47624 32.9219C6.27512 32.4687 6.03796 31.8576 5.77696 31.1381C5.25336 29.6949 4.61153 27.7537 3.93702 25.6298C2.58699 21.3788 1.09351 16.3558 0.130263 13.0271L0 12.577L9.46941 0ZM10.4047 1.875L2.91019 11.829H54.4041L46.5151 1.875H10.4047ZM55.0775 13.704H2.27969C3.22972 16.9576 4.53385 21.3145 5.72407 25.0623C6.3963 27.179 7.02906 29.0915 7.53956 30.4987C7.79561 31.2045 8.01538 31.7677 8.19002 32.1612C8.22023 32.2293 8.2481 32.29 8.27361 32.3438H49.3963L55.0775 13.704Z" fill="#FE9015"/>
<path fill-rule="evenodd" clip-rule="evenodd" d="M32.0311 20.7125L30.9621 20.1523C30.1583 19.7311 29.2234 19.487 28.2227 19.487C27.2203 19.487 26.279 19.7318 25.4766 20.1523L24.408 20.7123L22.5933 19.3015V24.2902C22.5933 27.0916 25.0257 29.5312 28.2183 29.5312C31.4108 29.5312 33.8433 27.0916 33.8433 24.2902V19.3028L32.0311 20.7125ZM35.7183 15.4688V24.2902C35.7183 28.2203 32.3506 31.4062 28.2183 31.4062C24.0859 31.4062 20.7183 28.2203 20.7183 24.2902V15.4688L24.6063 18.4915C25.6756 17.9311 26.9154 17.612 28.2227 17.612C29.5299 17.612 30.7631 17.9311 31.8324 18.4915L35.7183 15.4688Z" fill="#FE9015"/>
<path fill-rule="evenodd" clip-rule="evenodd" d="M43.2463 12.4288L46.0588 1.17883L47.8778 1.63359L45.0653 12.8836L43.2463 12.4288ZM11.8318 12.8474L9.48804 1.59742L11.3236 1.215L13.6674 12.465L11.8318 12.8474Z" fill="#FE9015"/>
</svg>
