<svg width="60" height="56" viewBox="0 0 60 56" fill="none" xmlns="http://www.w3.org/2000/svg">
<path d="M58.6262 1.37472C56.7952 -0.457829 53.8291 -0.458766 51.9969 1.37507L41.4154 11.976C38.2367 9.58836 33.6529 9.79554 30.7028 12.7471L21.5078 21.941C20.8393 21.7685 20.151 21.6804 19.453 21.6804C15.3157 21.6804 11.8842 24.7587 11.3286 28.7454C11.1088 28.7229 10.8871 28.7115 10.6641 28.7115C7.11017 28.7115 4.21885 31.6028 4.21885 35.1567C4.21885 35.3532 4.22834 35.5486 4.24581 35.7426H1.17191C0.790711 35.7426 0.433412 35.928 0.213807 36.2396C-0.00568137 36.5512 -0.0599382 36.9501 0.068497 37.309L6.39651 55.004C6.56326 55.4702 7.00482 55.7813 7.49993 55.7813H15.9373L14.5 54.0589C14.5 54.0589 10.8234 53.4376 8.32538 53.4376L2.83548 38.0863H57.1635L51.6736 53.4376H8.32538L15.9373 55.7813H44.0618H52.4991C52.9942 55.7813 53.4358 55.4702 53.6026 55.004L59.9306 37.309C60.059 36.9501 60.0047 36.5512 59.7853 36.2396C59.5656 35.928 59.2083 35.7426 58.8271 35.7426H55.6952C55.136 31.8512 51.8361 28.8354 47.8204 28.7177C50.2471 25.7671 50.2703 21.5669 48.0447 18.6044L58.6254 8.00308C60.4571 6.17276 60.4592 3.20621 58.6262 1.37472ZM53.3187 35.7426H6.60463C6.57721 35.5497 6.56244 35.3542 6.56244 35.1567C6.56244 32.8951 8.40237 31.0552 10.6639 31.0552C11.1354 31.0552 11.5968 31.1342 12.0352 31.2899C12.8118 31.5658 13.6278 30.9729 13.5987 30.1444C13.4757 26.6815 16.2206 24.0241 19.4528 24.0241C22.7201 24.0241 25.3121 26.6807 25.3121 29.8834C25.3121 30.5306 25.8369 31.0552 26.484 31.0552C27.1311 31.0552 27.6558 30.5306 27.6558 29.8834C27.6558 29.1146 27.5505 28.364 27.3443 27.6397C27.7409 27.5516 28.1523 27.5205 28.5727 27.5523C29.6647 27.6395 30.6582 28.1494 31.3701 28.9882C31.8011 29.4959 32.5685 29.5427 33.0581 29.0912C34.1427 28.0905 35.5535 27.5395 37.0305 27.5395C39.5867 27.5395 41.7641 29.186 42.5609 31.4581C42.8141 32.18 43.682 32.4701 44.3182 32.0443C45.3041 31.3851 46.4375 31.055 47.5772 31.055C50.407 31.0552 52.7743 33.0714 53.3187 35.7426ZM56.9676 6.34619L45.6171 17.719C45.1603 18.1768 45.1605 18.9181 45.6179 19.3755C47.9076 21.665 47.9082 25.3712 45.6177 27.6615L44.0762 29.2038C43.257 27.8346 42.0511 26.7281 40.6225 26.0282L42.3031 24.3476C42.7607 23.89 42.7607 23.148 42.3031 22.6903C41.8453 22.2327 41.1036 22.2327 40.6457 22.6903L38.0716 25.2644C37.7266 25.2207 37.3787 25.1959 37.0307 25.1959C35.3398 25.1959 33.7108 25.712 32.3427 26.6661C31.9099 26.3077 31.4349 26.0105 30.9287 25.7787L37.3319 19.3753C37.7896 18.9177 37.7896 18.1757 37.3319 17.7181C36.8742 17.2605 36.1324 17.2605 35.6746 17.7181L28.1956 25.1972C27.5754 25.2017 26.9577 25.2952 26.3671 25.474C25.7143 24.4549 24.8402 23.5887 23.8196 22.9433L32.3598 14.4041C34.6494 12.1136 38.3553 12.1132 40.6454 14.4041C41.1032 14.8623 41.8459 14.8618 42.3034 14.4035L53.6548 3.03113C54.5582 2.12705 56.0414 2.10396 56.9685 3.03184C57.8781 3.94049 57.8915 5.423 56.9676 6.34619Z" fill="#FE9015"/>
</svg>
