<svg width="161" height="73" viewBox="0 0 161 73" fill="none" xmlns="http://www.w3.org/2000/svg">
<path fill-rule="evenodd" clip-rule="evenodd" d="M23.1637 39.375C22.0126 39.3728 20.8806 39.6674 19.8776 40.2302C18.9621 39.4075 17.8367 38.8522 16.625 38.6253C15.4134 38.3983 14.1624 38.5085 13.0095 38.9437C11.8567 39.379 10.8465 40.1224 10.09 41.0923C9.33347 42.0622 8.85992 43.2211 8.72134 44.4417C8.58276 45.6623 8.78452 46.8973 9.30445 48.0111C9.82437 49.1249 10.6424 50.0744 11.6685 50.7552C12.6947 51.436 13.8894 51.8218 15.1212 51.8703C16.3531 51.9188 17.5746 51.628 18.6515 51.0299C19.461 51.7541 20.4352 52.2713 21.49 52.5368C22.5449 52.8022 23.6487 52.808 24.7063 52.5537C25.7639 52.2993 26.7435 51.7924 27.5607 51.0767C28.3778 50.3611 29.0079 49.458 29.3967 48.4456C29.7855 47.4331 29.9212 46.3417 29.7922 45.2653C29.6632 44.1889 29.2734 43.16 28.6563 42.2672C28.0392 41.3744 27.2133 40.6446 26.25 40.1408C25.2867 39.6369 24.2149 39.3741 23.1269 39.375" fill="white"/>
<path fill-rule="evenodd" clip-rule="evenodd" d="M47.025 18.4721C45.994 18.4717 44.9803 18.7369 44.0823 19.2418C43.2599 18.5071 42.2501 18.0126 41.164 17.8126C40.0778 17.6125 38.9574 17.7146 37.9257 18.1077C36.894 18.5008 35.9911 19.1696 35.3161 20.0407C34.6411 20.9118 34.2201 21.9515 34.0995 23.0454C33.9789 24.1394 34.1633 25.2453 34.6324 26.2416C35.1016 27.2379 35.8373 28.0861 36.7587 28.693C37.6801 29.2998 38.7516 29.6418 39.8554 29.6815C40.9593 29.7211 42.0527 29.4568 43.0155 28.9175C43.7411 29.565 44.6138 30.027 45.5584 30.2638C46.503 30.5005 47.4912 30.5049 48.4379 30.2765C49.3845 30.0482 50.2613 29.5939 50.9926 28.9529C51.7239 28.3118 52.2878 27.5032 52.6357 26.5968C52.9837 25.6903 53.1052 24.7132 52.9899 23.7495C52.8746 22.7859 52.5258 21.8646 51.9737 21.0651C51.4216 20.2656 50.6826 19.6118 49.8205 19.1601C48.9585 18.7084 47.9991 18.4723 47.025 18.4721Z" fill="white"/>
<path fill-rule="evenodd" clip-rule="evenodd" d="M64.9885 65.5681C61.0894 61.7809 57.9995 55.4159 56.0622 47.7559L55.9395 47.2184C55.8006 46.6482 55.6698 46.0741 55.5472 45.4958L55.4613 45.2026C54.1173 38.6424 53.6105 31.9392 53.9532 25.2524C53.1282 22.6963 52.5855 20.0581 52.3347 17.3848C51.6358 17.2626 51.0227 17.1282 50.4096 16.9816C49.7965 16.835 49.1835 16.664 48.5336 16.4563C48.6634 16.1832 48.7308 15.8849 48.7308 15.5828C48.7308 15.2806 48.6634 14.9823 48.5336 14.7093C48.1401 15.0404 47.6764 15.2784 47.1773 15.4054C46.6783 15.5323 46.1568 15.5449 45.6522 15.4423C46.535 15.259 47.0009 14.2206 46.6331 12.9989C46.253 14.2206 44.095 14.8559 42.4397 14.1351L41.6794 13.7808C40.4533 13.2066 39.4233 12.6568 38.565 12.1926C37.4153 12.8535 36.302 13.5753 35.2299 14.355C29.4302 36.4309 30.828 57.1629 38.6386 67.7061C36.0146 68.549 37.155 71.8598 39.4846 70.9802C39.7474 71.4918 40.1829 71.8948 40.7143 72.1183C41.2458 72.3417 41.8394 72.3713 42.3906 72.2019C42.7138 72.1178 43.0084 71.9487 43.2435 71.7122C43.4786 71.4758 43.6456 71.1808 43.7271 70.858C46.5963 70.1983 44.8429 65.6781 42.1086 67.193C41.4439 66.2723 40.8923 65.2757 40.4656 64.2243C39.4382 61.6077 38.7181 58.8815 38.3198 56.1C37.9803 54.3542 37.8772 52.571 38.0133 50.7979C38.8348 47.2062 46.5963 48.098 48.3742 50.9445C49.6866 53.1414 51.1406 55.2512 52.727 57.2606C54.2965 59.2886 55.8782 61.0967 57.276 62.5994C60.0594 65.5925 62.1806 67.4251 62.1806 67.4251C59.0907 69.3676 61.9722 73.5335 64.6329 71.4933C64.9936 71.7309 65.4044 71.8823 65.8335 71.9356C66.2625 71.989 66.6981 71.943 67.1063 71.8011C67.5145 71.6592 67.8844 71.4253 68.187 71.1176C68.4896 70.81 68.7168 70.4368 68.8509 70.0273C68.9692 69.4366 68.8644 68.8231 68.5566 68.3047C70.1628 66.3256 67.3918 63.6623 65.0743 65.5925L64.9885 65.5681ZM34.4329 23.3344C34.3995 22.2986 34.6751 21.2761 35.2248 20.3964C35.7745 19.5166 36.5737 18.8189 37.5212 18.3915C38.4688 17.9642 39.5223 17.8263 40.5485 17.9954C41.5746 18.1644 42.5275 18.6328 43.2866 19.3413C44.0457 20.0498 44.5769 20.9667 44.8131 21.9759C45.0493 22.9852 44.9799 24.0416 44.6137 25.0116C44.2475 25.9815 43.6009 26.8216 42.7556 27.4255C41.9103 28.0294 40.9043 28.37 39.8647 28.4044C39.1739 28.4272 38.4853 28.3141 37.8383 28.0716C37.1913 27.8291 36.5986 27.462 36.0942 26.9911C35.5897 26.5202 35.1833 25.9549 34.8983 25.3275C34.6132 24.7 34.4551 24.0228 34.4329 23.3344ZM43.0159 35.9788L41.6917 34.8305L41.1154 35.5024C38.4792 33.9142 37.2408 29.0885 37.2408 29.0885C41.7408 31.6907 49.2693 30.8966 49.2693 30.8966C49.2693 30.8966 46.069 35.6612 43.0282 35.9666L43.0159 35.9788ZM48.6685 29.5039C47.9767 29.5275 47.2912 29.3673 46.6821 29.0397C46.4576 28.971 46.2576 28.8396 46.1058 28.6609C45.3867 28.0875 44.8929 27.2803 44.7111 26.3806C44.5292 25.4809 44.6708 24.5462 45.111 23.7401C45.5513 22.934 46.2621 22.3079 47.1191 21.9714C47.976 21.635 48.9244 21.6096 49.7983 21.8999C50.6721 22.1901 51.4156 22.7773 51.8985 23.5588C52.3815 24.3402 52.5731 25.2661 52.4399 26.1742C52.3066 27.0822 51.857 27.9147 51.1697 28.5257C50.4825 29.1367 49.6014 29.4873 48.6807 29.5161L48.6685 29.5039Z" fill="#F49822"/>
<path fill-rule="evenodd" clip-rule="evenodd" d="M43.7622 46.1065C41.4326 44.8848 39.4585 41.5618 40.9912 37.1393C41.3875 36.7257 41.7145 36.2513 41.9598 35.7343C42.0456 35.5633 42.1192 35.38 42.1928 35.1968C42.2369 35.9775 42.4592 36.738 42.8426 37.4202C43.7132 41.0853 46.3862 40.5966 47.7472 42.7468C48.9734 44.7137 46.9012 47.7679 43.75 46.1065" fill="#CC1721"/>
<path fill-rule="evenodd" clip-rule="evenodd" d="M41.3124 38.5686C43.0658 42.1482 45.7265 41.012 47.6393 42.9423C47.8172 43.122 47.9661 43.328 48.0807 43.5531C48.0259 43.2669 47.9178 42.9934 47.7619 42.7468C46.4009 40.5966 43.7157 41.0853 42.8573 37.4202C42.4739 36.738 42.2516 35.9775 42.2075 35.1968C42.1339 35.38 42.0604 35.5633 41.9745 35.7343C41.7294 36.2514 41.4023 36.7258 41.0059 37.1393C40.92 37.3836 40.8465 37.6279 40.7852 37.8723C40.943 38.1243 41.1236 38.3615 41.3247 38.5809" fill="#A31C25"/>
<path fill-rule="evenodd" clip-rule="evenodd" d="M39.2394 24.4337C39.2782 24.6022 39.2671 24.7783 39.2073 24.9406C39.1475 25.1029 39.0416 25.2443 38.9026 25.3478C38.7636 25.4512 38.5974 25.5122 38.4243 25.5232C38.2512 25.5343 38.0785 25.495 37.9274 25.4101C37.7763 25.3252 37.6531 25.1984 37.573 25.045C37.4929 24.8917 37.4593 24.7185 37.4762 24.5464C37.4931 24.3744 37.5598 24.2109 37.6682 24.076C37.7766 23.941 37.922 23.8403 38.0868 23.7862C37.6881 23.7105 37.2755 23.7599 36.9061 23.9277C36.5368 24.0954 36.2287 24.3731 36.0244 24.7226C35.8201 25.0721 35.7296 25.4762 35.7655 25.8791C35.8013 26.282 35.9618 26.6638 36.2246 26.9721C36.4875 27.2803 36.8398 27.4997 37.233 27.6C37.6263 27.7003 38.0411 27.6766 38.4203 27.5322C38.7994 27.3877 39.1243 27.1296 39.3501 26.7935C39.5758 26.4574 39.6914 26.0597 39.6808 25.6554C39.665 25.2037 39.4915 24.7717 39.1904 24.4337" fill="#322726"/>
<path fill-rule="evenodd" clip-rule="evenodd" d="M47.8214 27.3413C47.8214 27.6653 47.6922 27.9761 47.4623 28.2052C47.2323 28.4343 46.9205 28.563 46.5953 28.563C46.4613 28.5853 46.3246 28.5853 46.1906 28.563C45.9661 28.4944 45.7661 28.3629 45.6143 28.1843C45.4394 27.9742 45.3402 27.7119 45.3323 27.4391C45.3323 27.1151 45.4615 26.8043 45.6915 26.5752C45.9214 26.3461 46.2333 26.2174 46.5585 26.2174H46.8037C46.6863 26.2526 46.584 26.3257 46.5129 26.4252C46.4419 26.5248 46.4061 26.6451 46.4113 26.7671C46.4113 26.9162 46.4708 27.0591 46.5765 27.1645C46.6823 27.2699 46.8258 27.3291 46.9754 27.3291C47.125 27.3291 47.2684 27.2699 47.3742 27.1645C47.48 27.0591 47.5394 26.9162 47.5394 26.7671C47.5441 26.7306 47.5441 26.6937 47.5394 26.6572C47.7284 26.8704 47.8368 27.1426 47.8459 27.4269" fill="#322726"/>
<path fill-rule="evenodd" clip-rule="evenodd" d="M52.7272 57.2604H52.482C48.4429 57.9937 44.2917 57.8395 40.3186 56.8084C39.6432 56.6034 38.9835 56.3503 38.3445 56.051C38.0012 54.3222 37.8899 52.5557 38.0135 50.7977C38.835 47.2059 46.5965 48.0978 48.3744 50.9443C49.6868 53.1412 51.1408 55.251 52.7272 57.2604Z" fill="#C94918"/>
<path fill-rule="evenodd" clip-rule="evenodd" d="M69.2311 40.1569C68.4949 42.0452 67.3031 43.7236 65.7611 45.0437C63.9346 46.8289 61.5321 47.911 58.9805 48.0979C57.9912 48.1301 57.0028 48.0106 56.05 47.7436L55.9274 47.2061L55.535 45.4835L55.4614 45.2025C57.209 44.8725 58.8542 44.1376 60.2641 43.0571C61.6741 41.9767 62.8092 40.581 63.5778 38.9827C64.3464 37.3845 64.727 35.6286 64.6888 33.8567C64.6506 32.0849 64.1946 30.3469 63.3578 28.783C64.5558 29.455 65.6068 30.3588 66.4491 31.4414C67.2914 32.524 67.9079 33.7635 68.2624 35.0869C68.5338 34.4093 68.7631 33.7157 68.949 33.01C69.3052 35.6762 69.0451 38.3881 68.1888 40.9388L69.2311 40.1569Z" fill="#C94918"/>
<path fill-rule="evenodd" clip-rule="evenodd" d="M41.7532 10.5554C40.6214 10.9884 39.53 11.5199 38.4917 12.1436C37.342 12.8045 36.2287 13.5263 35.1566 14.306C33.12 15.7848 31.2015 17.4186 29.4182 19.1927C28.2043 10.2988 31.9563 0 33.7465 0C34.004 0 34.2124 0.207687 34.3718 0.659711C35.598 4.32478 41.7287 10.5554 41.7287 10.5554" fill="#C94918"/>
<path fill-rule="evenodd" clip-rule="evenodd" d="M41.7522 10.5554L41.6051 13.7317C40.3789 13.1576 39.349 12.6078 38.4907 12.1436C39.529 11.5198 40.6204 10.9884 41.7522 10.5554Z" fill="#AA3D19"/>
<path fill-rule="evenodd" clip-rule="evenodd" d="M64.4749 19.9257C61.7695 23.9392 59.6322 28.305 58.1235 32.9001C56.2471 30.6457 54.8309 28.0478 53.9546 25.2523C53.1296 22.6962 52.5869 20.058 52.336 17.3846C52.336 16.8227 52.2257 16.2607 52.1889 15.6987C52.173 15.4793 52.2119 15.2593 52.3021 15.0585C52.3923 14.8576 52.5311 14.6822 52.706 14.5479C52.8809 14.4136 53.0865 14.3245 53.3043 14.2887C53.5222 14.2529 53.7456 14.2714 53.9546 14.3426C56.2107 15.0634 60.1589 16.2729 63.3836 17.0181C63.6827 17.0878 63.9601 17.229 64.192 17.4296C64.4239 17.6302 64.6031 17.8841 64.7142 18.1693C64.8254 18.4546 64.865 18.7625 64.8297 19.0664C64.7944 19.3704 64.6853 19.6611 64.5117 19.9135" fill="#FE9015"/>
<path fill-rule="evenodd" clip-rule="evenodd" d="M42.536 64.1507C41.7635 65.1402 40.5006 64.2606 40.4515 64.224C39.4242 61.6074 38.7041 58.8812 38.3058 56.0998C38.9447 56.3991 39.6045 56.6522 40.2799 56.8572C40.1766 58.753 40.3711 60.6532 40.8562 62.4892C42.0823 61.8783 43.3085 63.1611 42.536 64.1629" fill="#C94918"/>
<path fill-rule="evenodd" clip-rule="evenodd" d="M56.3442 64.6029C56.1155 64.6478 55.8787 64.6268 55.6616 64.5424C55.4444 64.458 55.2559 64.3137 55.1181 64.1264C54.1127 65.6779 52.2489 63.54 54.0636 62.5749C53.3668 60.8716 52.8411 59.1037 52.4941 57.2972H52.7394C54.3088 59.3252 55.8906 61.1333 57.2884 62.6359C58.0118 63.5033 57.178 64.4563 56.381 64.6395" fill="#C94918"/>
<path fill-rule="evenodd" clip-rule="evenodd" d="M43.4064 71.5421C34.6149 62.4527 32.6776 44.665 36.638 27.2926C35.8097 26.6478 35.1943 25.7707 34.871 24.7742C34.5478 23.7776 34.5316 22.7075 34.8245 21.7017C35.1175 20.696 35.7061 19.8007 36.5145 19.1314C37.3229 18.4621 38.3141 18.0494 39.3601 17.9466C39.9118 16.4195 40.4759 14.9779 41.1135 13.4997C40.1693 13.0355 39.1884 12.5224 38.4895 12.1436C37.3399 12.8046 36.2266 13.5264 35.1544 14.306C29.4283 36.4308 30.8384 57.1628 38.6367 67.706C35.8656 68.6345 37.2021 71.9086 39.5072 71.029C39.7711 71.5486 40.2126 71.9573 40.7522 72.1813C41.2917 72.4053 41.8938 72.4299 42.45 72.2507C42.8196 72.1149 43.1487 71.8879 43.4064 71.591" fill="#E67B07"/>
<path fill-rule="evenodd" clip-rule="evenodd" d="M37.7908 30.872C35.0197 32.1548 33.7445 34.647 33.7568 35.6488C33.7691 36.6506 33.8794 39.4116 38.0115 39.3139C39.2377 38.984 40.9788 38.8618 42.3398 35.038C42.1559 36.9438 42.6709 39.7048 45.8098 40.0835C46.489 40.2667 47.2012 40.2926 47.8919 40.1592C48.5827 40.0258 49.2336 39.7366 49.7948 39.3139C50.3517 38.7693 50.7393 38.0764 50.9111 37.318C51.0829 36.5597 51.0316 35.768 50.7635 35.038C50.1627 32.7045 47.085 31.6905 47.085 31.6905L37.7908 30.872Z" fill="#FCCA7E"/>
<path fill-rule="evenodd" clip-rule="evenodd" d="M47.3318 35.429C47.3342 35.4966 47.3164 35.5634 47.2807 35.6209C47.245 35.6784 47.193 35.7241 47.1312 35.7522C47.0695 35.7803 47.0007 35.7895 46.9337 35.7787C46.8667 35.7678 46.8044 35.7374 46.7548 35.6914C46.7051 35.6453 46.6702 35.5855 46.6546 35.5197C46.639 35.4539 46.6433 35.3849 46.667 35.3216C46.6907 35.2582 46.7327 35.2032 46.7878 35.1636C46.8428 35.124 46.9084 35.1016 46.9762 35.0991C47.0213 35.0975 47.0663 35.1048 47.1086 35.1205C47.1509 35.1362 47.1896 35.16 47.2227 35.1906C47.2557 35.2213 47.2823 35.2581 47.301 35.299C47.3198 35.3399 47.3302 35.3841 47.3318 35.429Z" fill="#C3793A"/>
<path fill-rule="evenodd" clip-rule="evenodd" d="M49.2204 34.0729C49.222 34.1178 49.2148 34.1627 49.199 34.2048C49.1833 34.2469 49.1593 34.2855 49.1286 34.3184C49.0978 34.3513 49.0609 34.3779 49.0198 34.3965C48.9788 34.4152 48.9344 34.4256 48.8893 34.4272C48.8215 34.4296 48.7545 34.4119 48.6967 34.3763C48.639 34.3407 48.5932 34.2889 48.565 34.2273C48.5368 34.1658 48.5276 34.0973 48.5384 34.0306C48.5493 33.9638 48.5798 33.9018 48.626 33.8522C48.6723 33.8027 48.7322 33.768 48.7983 33.7525C48.8644 33.7369 48.9336 33.7412 48.9972 33.7648C49.0608 33.7884 49.116 33.8303 49.1557 33.8851C49.1954 33.94 49.2179 34.0053 49.2204 34.0729Z" fill="#C3793A"/>
<path fill-rule="evenodd" clip-rule="evenodd" d="M48.7307 36.052C48.7331 36.1196 48.7153 36.1863 48.6796 36.2439C48.6439 36.3014 48.5919 36.3471 48.5301 36.3752C48.4683 36.4032 48.3996 36.4124 48.3326 36.4016C48.2656 36.3908 48.2033 36.3604 48.1536 36.3143C48.1039 36.2682 48.0691 36.2085 48.0535 36.1427C48.0378 36.0769 48.0422 36.0079 48.0659 35.9445C48.0896 35.8811 48.1316 35.8262 48.1866 35.7866C48.2417 35.747 48.3073 35.7246 48.3751 35.7221C48.4202 35.7205 48.4652 35.7277 48.5074 35.7434C48.5497 35.7591 48.5885 35.783 48.6215 35.8136C48.6545 35.8442 48.6812 35.881 48.6999 35.9219C48.7186 35.9628 48.7291 36.007 48.7307 36.052Z" fill="#C3793A"/>
<path fill-rule="evenodd" clip-rule="evenodd" d="M49.047 37.9578C49.0494 38.0254 49.0316 38.0922 48.9959 38.1497C48.9602 38.2073 48.9082 38.253 48.8464 38.281C48.7847 38.3091 48.716 38.3183 48.6489 38.3075C48.5819 38.2967 48.5197 38.2663 48.47 38.2202C48.4203 38.1741 48.3854 38.1144 48.3698 38.0486C48.3542 37.9827 48.3585 37.9138 48.3822 37.8504C48.4059 37.787 48.4479 37.7321 48.503 37.6925C48.558 37.6529 48.6236 37.6304 48.6914 37.628C48.7365 37.6264 48.7815 37.6336 48.8238 37.6493C48.8661 37.665 48.9048 37.6888 48.9379 37.7195C48.9709 37.7501 48.9975 37.7869 49.0163 37.8278C49.035 37.8687 49.0454 37.9129 49.047 37.9578Z" fill="#C3793A"/>
<path fill-rule="evenodd" clip-rule="evenodd" d="M47.0365 37.1882C47.0381 37.2332 47.0308 37.278 47.0151 37.3201C46.9993 37.3622 46.9754 37.4009 46.9446 37.4338C46.9139 37.4667 46.8769 37.4932 46.8359 37.5119C46.7948 37.5305 46.7505 37.541 46.7054 37.5425C46.6375 37.5449 46.5705 37.5272 46.5128 37.4916C46.455 37.456 46.4092 37.4042 46.381 37.3427C46.3528 37.2811 46.3436 37.2127 46.3545 37.1459C46.3653 37.0791 46.3958 37.0171 46.4421 36.9676C46.4883 36.9181 46.5483 36.8833 46.6144 36.8678C46.6804 36.8522 46.7496 36.8565 46.8132 36.8801C46.8768 36.9037 46.932 36.9456 46.9717 37.0005C47.0115 37.0553 47.034 37.1207 47.0365 37.1882Z" fill="#C3793A"/>
<path fill-rule="evenodd" clip-rule="evenodd" d="M50.1403 36.394C50.142 36.439 50.1347 36.4838 50.1189 36.5259C50.1032 36.568 50.0793 36.6067 50.0485 36.6396C50.0178 36.6725 49.9808 36.699 49.9398 36.7177C49.8987 36.7363 49.8544 36.7468 49.8093 36.7483C49.7182 36.7483 49.6309 36.7123 49.5665 36.6481C49.5021 36.584 49.4659 36.497 49.4659 36.4063C49.4659 36.3155 49.5021 36.2285 49.5665 36.1644C49.6309 36.1002 49.7182 36.0642 49.8093 36.0642C49.8544 36.0626 49.8993 36.0698 49.9416 36.0855C49.9839 36.1012 50.0227 36.125 50.0557 36.1557C50.0887 36.1863 50.1153 36.2231 50.1341 36.264C50.1528 36.3049 50.1633 36.3491 50.1648 36.394" fill="#C3793A"/>
<path fill-rule="evenodd" clip-rule="evenodd" d="M36.8827 34.2072C36.8184 34.2274 36.7495 34.2283 36.6847 34.2097C36.62 34.1912 36.5621 34.154 36.5183 34.1029C36.4746 34.0518 36.4469 33.989 36.4387 33.9223C36.4306 33.8557 36.4423 33.7881 36.4725 33.728C36.5026 33.6679 36.5498 33.618 36.6083 33.5845C36.6667 33.551 36.7338 33.5354 36.801 33.5396C36.8683 33.5438 36.9329 33.5676 36.9866 33.6081C37.0404 33.6487 37.081 33.7041 37.1034 33.7674C37.1187 33.8107 37.1251 33.8566 37.1222 33.9024C37.1193 33.9482 37.1072 33.9929 37.0866 34.0339C37.066 34.075 37.0374 34.1115 37.0023 34.1412C36.9673 34.171 36.9266 34.1934 36.8827 34.2072Z" fill="#C3793A"/>
<path fill-rule="evenodd" clip-rule="evenodd" d="M36.9723 35.9667C36.908 35.9868 36.8391 35.9877 36.7743 35.9692C36.7096 35.9506 36.6517 35.9135 36.6079 35.8624C36.5642 35.8113 36.5365 35.7485 36.5283 35.6818C36.5202 35.6151 36.5319 35.5475 36.5621 35.4874C36.5922 35.4273 36.6394 35.3774 36.6979 35.3439C36.7563 35.3104 36.8234 35.2948 36.8906 35.299C36.9579 35.3032 37.0225 35.3271 37.0762 35.3676C37.13 35.4081 37.1706 35.4635 37.193 35.5269C37.2083 35.5701 37.2147 35.616 37.2118 35.6618C37.2089 35.7076 37.1968 35.7523 37.1762 35.7934C37.1556 35.8344 37.127 35.8709 37.0919 35.9007C37.0569 35.9304 37.0162 35.9529 36.9723 35.9667Z" fill="#C3793A"/>
<path fill-rule="evenodd" clip-rule="evenodd" d="M37.7779 37.3593C37.714 37.3817 37.6449 37.3848 37.5792 37.3682C37.5136 37.3516 37.4543 37.316 37.4089 37.2659C37.3636 37.2158 37.3341 37.1534 37.3242 37.0866C37.3143 37.0198 37.3244 36.9516 37.3534 36.8906C37.3823 36.8296 37.4287 36.7784 37.4867 36.7436C37.5448 36.7088 37.6119 36.6919 37.6795 36.695C37.7472 36.698 37.8124 36.721 37.867 36.761C37.9216 36.8009 37.9632 36.8561 37.9864 36.9195C38.0019 36.962 38.0089 37.0071 38.0068 37.0523C38.0047 37.0975 37.9936 37.1418 37.9743 37.1827C37.9549 37.2236 37.9275 37.2603 37.8938 37.2906C37.8601 37.3209 37.8207 37.3443 37.7779 37.3593Z" fill="#C3793A"/>
<path fill-rule="evenodd" clip-rule="evenodd" d="M38.6265 35.7589C38.5622 35.779 38.4933 35.7799 38.4285 35.7614C38.3637 35.7428 38.3058 35.7057 38.2621 35.6546C38.2183 35.6035 38.1907 35.5407 38.1825 35.474C38.1744 35.4073 38.1861 35.3397 38.2162 35.2796C38.2464 35.2195 38.2936 35.1696 38.3521 35.1361C38.4105 35.1026 38.4775 35.087 38.5448 35.0912C38.6121 35.0954 38.6766 35.1193 38.7304 35.1598C38.7842 35.2003 38.8248 35.2557 38.8472 35.3191C38.8625 35.3623 38.8688 35.4082 38.866 35.454C38.8631 35.4998 38.851 35.5445 38.8304 35.5856C38.8098 35.6266 38.7811 35.6631 38.7461 35.6929C38.7111 35.7226 38.6704 35.7451 38.6265 35.7589Z" fill="#C3793A"/>
<path fill-rule="evenodd" clip-rule="evenodd" d="M35.4515 35.7589C35.3872 35.779 35.3183 35.7799 35.2535 35.7614C35.1887 35.7428 35.1309 35.7057 35.0871 35.6546C35.0434 35.6035 35.0157 35.5407 35.0075 35.474C34.9994 35.4073 35.0111 35.3397 35.0412 35.2796C35.0714 35.2195 35.1186 35.1696 35.1771 35.1361C35.2355 35.1026 35.3025 35.087 35.3698 35.0912C35.4371 35.0954 35.5017 35.1193 35.5554 35.1598C35.6092 35.2003 35.6498 35.2557 35.6722 35.3191C35.6875 35.3623 35.6939 35.4082 35.691 35.454C35.6881 35.4998 35.676 35.5445 35.6554 35.5856C35.6348 35.6266 35.6061 35.6631 35.5711 35.6929C35.5361 35.7226 35.4954 35.7451 35.4515 35.7589Z" fill="#C3793A"/>
<path fill-rule="evenodd" clip-rule="evenodd" d="M35.843 37.347C35.7503 37.3843 35.6466 37.3834 35.5546 37.3444C35.4627 37.3055 35.39 37.2317 35.3526 37.1394C35.3152 37.047 35.3161 36.9436 35.3552 36.852C35.3943 36.7604 35.4683 36.6879 35.561 36.6507C35.6463 36.6247 35.7385 36.6329 35.8179 36.6734C35.8973 36.7139 35.9577 36.7837 35.9864 36.8678C36.0151 36.952 36.0098 37.044 35.9716 37.1243C35.9334 37.2046 35.8653 37.267 35.7817 37.2982" fill="#C3793A"/>
<path fill-rule="evenodd" clip-rule="evenodd" d="M49.2175 30.8965C49.2175 30.8965 45.4533 36.5774 42.1794 35.9299C38.9056 35.2824 37.189 29.0762 37.189 29.0762C41.689 31.6784 49.2175 30.8843 49.2175 30.8843" fill="#111314"/>
<path fill-rule="evenodd" clip-rule="evenodd" d="M40.6003 30.872C42.2429 31.2435 43.919 31.4482 45.603 31.4829C43.9197 31.943 42.1223 31.7235 40.6003 30.872Z" fill="white"/>
<path fill-rule="evenodd" clip-rule="evenodd" d="M48.8746 51.7995L48.3596 50.9443C46.594 48.0855 38.8202 47.1937 38.011 50.7977C37.8667 52.5697 37.9616 54.3529 38.293 56.0998C38.9319 56.3992 39.5916 56.6523 40.2671 56.8573C40.6227 56.9672 40.9905 57.0649 41.3461 57.1505C40.4019 52.8501 44.5586 51.6773 48.8869 51.7995" fill="#AA3D19"/>
<path fill-rule="evenodd" clip-rule="evenodd" d="M65.7725 45.0681C67.3146 43.748 68.5064 42.0696 69.2425 40.1814L68.2003 40.9388C69.0562 38.3795 69.3121 35.6588 68.9482 32.9856C68.7623 33.6913 68.533 34.3849 68.2616 35.0625C68.0009 34.0454 67.5876 33.0733 67.0354 32.1793C68.0899 39.9981 63.4673 46.3142 55.8407 46.6319L55.9756 47.2061L56.0982 47.7436C57.051 48.0106 58.0394 48.13 59.0287 48.0979C61.5803 47.911 63.9828 46.8289 65.8093 45.0437" fill="#AA3D19"/>
<path fill-rule="evenodd" clip-rule="evenodd" d="M20.2459 37.7746C20.2459 37.2696 20.2459 36.7769 20.2459 36.2964C20.2459 35.8321 20.2459 35.3801 20.2459 34.9403C20.2459 33.9141 20.0865 32.9612 19.9639 32.0693C19.8658 31.4096 19.7513 30.7825 19.6205 30.1879C19.329 28.9738 18.9183 27.7912 18.3944 26.6573C18.1239 26.0382 17.8041 25.4418 17.438 24.8736C15.5865 22.0515 13.2078 21.4773 11.6138 22.6868C10.0198 23.8962 10.3877 25.5211 11.3563 27.4025C11.6138 27.8912 11.9203 28.4043 12.2514 28.9174C12.7664 29.7481 13.3427 30.6155 13.8944 31.4951C14.1478 31.9024 14.389 32.3096 14.6179 32.7168C15.0432 33.4628 15.4042 34.2434 15.6969 35.0502C15.9921 35.8536 16.1536 36.6995 16.1751 37.5547L20.2459 37.7746Z" fill="#4E9CC7"/>
<path fill-rule="evenodd" clip-rule="evenodd" d="M20.2343 36.0887C18.9537 35.5869 17.5299 35.5869 16.2493 36.0887C16.1692 35.7458 16.0709 35.4073 15.955 35.0747V34.9647C17.2915 33.9385 19.6335 34.5494 20.2097 34.7571C20.2097 34.7571 20.2097 35.6489 20.2097 36.0887" fill="#A2D6F3"/>
<path fill-rule="evenodd" clip-rule="evenodd" d="M19.8913 31.9959C19.8913 31.9959 16.9118 30.7742 14.9131 32.7778C14.6924 32.3624 14.4595 31.9593 14.2265 31.5561C16.1516 29.1127 19.5602 30.1512 19.5602 30.1512C19.6951 30.7376 19.7932 31.3729 19.9036 31.9959" fill="#A2D6F3"/>
<path fill-rule="evenodd" clip-rule="evenodd" d="M18.3923 26.6083H18.1593C18.1593 26.6083 14.4073 26.3518 12.6294 29.0517C12.3228 28.5386 12.0286 28.0377 11.7833 27.549C13.5122 24.8369 17.4113 24.8369 17.4113 24.8369C17.7812 25.4027 18.1091 25.9948 18.3923 26.6083Z" fill="#A2D6F3"/>
<path fill-rule="evenodd" clip-rule="evenodd" d="M16.764 32.1059C15.3417 28.4408 11.8594 23.945 13.7477 22.198C13.0944 22.0725 12.4177 22.2039 11.8594 22.5645C9.73816 23.9328 10.4738 25.6676 11.4793 27.5734C11.7368 28.0621 12.0678 28.5752 12.3989 29.1128C12.9261 29.9435 13.4902 30.8109 14.0419 31.7027C14.2994 32.1181 14.4711 32.4235 14.7041 32.8511C15.1135 33.5685 15.4582 34.3208 15.734 35.099C16.0312 35.9102 16.1928 36.7646 16.2122 37.6279L18.3457 37.7012C17.9844 35.8014 17.4551 33.9372 16.764 32.1303" fill="#006FA1"/>
<path fill-rule="evenodd" clip-rule="evenodd" d="M17.5496 34.3906C16.961 34.4172 16.3935 34.617 15.9188 34.9648V35.0748C16.0349 35.4073 16.1331 35.7458 16.2131 36.0888C16.733 35.8384 17.3032 35.7089 17.8807 35.7101C17.7703 35.2825 17.6477 34.8427 17.5251 34.3906" fill="#4E9CC7"/>
<path fill-rule="evenodd" clip-rule="evenodd" d="M15.9415 30.2613C15.2737 30.5384 14.6903 30.9849 14.2494 31.5563C14.4824 31.9472 14.7153 32.3381 14.936 32.778C15.3979 32.3001 15.9769 31.9505 16.6159 31.764C16.4074 31.2753 16.1622 30.7744 15.9047 30.2613" fill="#4E9CC7"/>
<path fill-rule="evenodd" clip-rule="evenodd" d="M13.7116 25.7533C12.9451 26.1741 12.2961 26.7788 11.8234 27.5126C12.0686 28.0012 12.3629 28.4899 12.6694 29.0152C13.1236 28.342 13.7388 27.792 14.4596 27.4148C14.1776 26.8406 13.9201 26.2909 13.7116 25.7533Z" fill="#4E9CC7"/>
<path fill-rule="evenodd" clip-rule="evenodd" d="M26.4374 67.7671C31.0703 56.2698 32.5802 43.759 30.8148 31.4952C30.0657 33.6959 28.9598 35.7593 27.541 37.6036C26.5968 37.6036 23.8625 37.6647 20.1841 37.6036C17.3762 37.5303 14.0533 37.3837 10.4975 37.0661C9.23416 35.7673 7.89536 34.5435 6.48801 33.401C8.15557 37.567 9.85992 56.3443 2.80957 66.8508C2.55686 66.6363 2.24679 66.5001 1.91743 66.4587C1.58807 66.4173 1.25375 66.4727 0.95554 66.618C0.657329 66.7634 0.408203 66.9923 0.238754 67.2767C0.0693056 67.5611 -0.0130884 67.8887 0.00169018 68.2191C0.00913543 68.585 0.146115 68.9364 0.388429 69.2114C0.630744 69.4863 0.962798 69.6671 1.32593 69.7218C1.38353 70.0452 1.558 70.3364 1.81639 70.5403C2.14902 70.7383 2.52533 70.8518 2.91229 70.871C3.29926 70.8902 3.68502 70.8144 4.03572 70.6503C4.21793 70.9342 4.49725 71.1426 4.82191 71.2369C5.14658 71.3313 5.49456 71.3052 5.80137 71.1634C6.04795 71.0683 6.26739 70.9144 6.4405 70.7153C6.61361 70.5162 6.73512 70.2778 6.79439 70.021C6.85367 69.7643 6.84892 69.497 6.78055 69.2425C6.71217 68.988 6.58226 68.7541 6.40218 68.5612C7.17548 67.5331 7.86046 66.442 8.44985 65.2993C8.80543 64.6274 9.11197 63.9676 9.40624 63.3446C10.522 60.9012 11.4539 58.9099 14.1269 57.1018C18.7372 53.9987 24.2549 55.8801 24.12 60.2537C24.0903 61.149 24.0125 62.0422 23.887 62.9292C23.7428 63.8356 23.5463 64.733 23.2985 65.6169C23.1345 66.2738 22.9256 66.9187 22.6732 67.5472C22.41 67.4967 22.1383 67.5137 21.8836 67.5965C21.6288 67.6794 21.3993 67.8253 21.2167 68.0207C21.0341 68.2161 20.9043 68.4546 20.8395 68.7136C20.7747 68.9727 20.777 69.2439 20.8462 69.5019C20.9095 69.7147 21.0193 69.9108 21.1678 70.0763C21.3162 70.2418 21.4996 70.3724 21.7048 70.4588C21.9099 70.5453 22.1318 70.5854 22.3543 70.5762C22.5769 70.5671 22.7946 70.5089 22.992 70.4059C23.1844 70.6531 23.435 70.8492 23.7215 70.9771C24.0081 71.1049 24.3218 71.1605 24.635 71.139C24.8849 71.1291 25.1296 71.0649 25.3519 70.9509C25.5743 70.837 25.769 70.676 25.9225 70.4792C26.1381 70.5938 26.3795 70.6515 26.6238 70.6471C26.8681 70.6426 27.1072 70.576 27.3184 70.4536C27.5297 70.3313 27.7061 70.1572 27.8308 69.9479C27.9556 69.7385 28.0247 69.5009 28.0314 69.2576C28.0314 68.6467 27.7249 67.5228 26.4007 67.816L26.4374 67.7671ZM15.7332 49.6495C14.7081 49.6827 13.6962 49.4124 12.8253 48.8728C11.9544 48.3331 11.2637 47.5484 10.8403 46.6176C10.417 45.6869 10.2801 44.652 10.4469 43.6438C10.6138 42.6356 11.0768 41.6993 11.7776 40.9532C12.4784 40.2071 13.3855 39.6848 14.3842 39.4523C15.3828 39.2198 16.4283 39.2875 17.3883 39.6468C18.3484 40.0061 19.18 40.641 19.778 41.4711C20.376 42.3013 20.7136 43.2894 20.7481 44.3107C20.771 44.9894 20.6595 45.666 20.4198 46.3017C20.1801 46.9375 19.817 47.5199 19.3512 48.0157C18.8855 48.5116 18.3262 48.9111 17.7054 49.1914C17.0846 49.4717 16.4144 49.6274 15.7332 49.6495ZM20.7358 50.8712C20.8039 51.1287 20.9238 51.3698 21.0882 51.5798C21.2526 51.7898 21.4581 51.9643 21.6922 52.0928C20.932 54.5362 19.4239 53.9254 19.6691 51.9218C19.917 51.8457 20.1431 51.7118 20.3286 51.5312C20.5141 51.3506 20.6537 51.1285 20.7358 50.8834C19.6201 50.2237 18.21 48.7576 20.8462 48.8676C22.4892 49.002 22.5996 49.4662 20.7358 50.8223V50.8712ZM25.0396 49.3929H24.6473H24.4388C24.2009 49.3983 23.9666 49.3346 23.7644 49.2097C22.7626 48.9232 21.9065 48.2702 21.3675 47.3813C20.8285 46.4925 20.6466 45.4336 20.8581 44.4168C21.0696 43.3999 21.659 42.5003 22.5081 41.8981C23.3572 41.2959 24.4033 41.0357 25.4369 41.1696C26.4704 41.3034 27.415 41.8215 28.0814 42.62C28.7478 43.4185 29.0867 44.4383 29.0303 45.4753C28.9738 46.5122 28.5262 47.4896 27.777 48.2115C27.0279 48.9335 26.0326 49.3468 24.9906 49.3685L25.0396 49.3929Z" fill="#4E9CC7"/>
<path fill-rule="evenodd" clip-rule="evenodd" d="M21.6905 52.0317C20.9303 54.4751 19.4222 53.8642 19.6674 51.8607C19.9153 51.7846 20.1414 51.6507 20.3269 51.4701C20.5124 51.2895 20.652 51.0674 20.7341 50.8222C20.8022 51.0798 20.9221 51.3209 21.0865 51.5309C21.2509 51.7409 21.4564 51.9154 21.6905 52.0439" fill="#CE3B43"/>
<path fill-rule="evenodd" clip-rule="evenodd" d="M24.1081 60.2536C24.0784 61.149 24.0006 62.0421 23.8751 62.9291C23.3234 63.088 22.7594 63.2223 22.1831 63.3201C18.3058 63.9476 14.3583 64.0175 10.4611 63.5278L9.38208 63.3812C10.4979 60.9378 11.4297 58.9464 14.1027 57.1383C18.7131 54.0352 24.2307 55.9166 24.0958 60.2903" fill="#A2D6F3"/>
<path fill-rule="evenodd" clip-rule="evenodd" d="M19.8174 41.8673C19.8214 41.912 19.8214 41.957 19.8174 42.0017C19.8243 42.1428 19.7914 42.283 19.7224 42.4065C19.6535 42.53 19.5513 42.6318 19.4273 42.7004C19.3034 42.769 19.1626 42.8017 19.021 42.7948C18.8793 42.7879 18.7425 42.7417 18.6258 42.6613C18.5092 42.581 18.4174 42.4697 18.3609 42.3401C18.3044 42.2105 18.2854 42.0678 18.306 41.928C18.3267 41.7882 18.3861 41.657 18.4777 41.5491C18.5693 41.4412 18.6893 41.361 18.8243 41.3176H18.4932C18.1143 41.3263 17.7497 41.4633 17.4595 41.7061C17.1692 41.9488 16.9706 42.2829 16.8964 42.6532C16.8221 43.0234 16.8767 43.4079 17.0511 43.7431C17.2255 44.0784 17.5093 44.3444 17.8557 44.4975C18.2022 44.6505 18.5906 44.6815 18.957 44.5851C19.3235 44.4888 19.646 44.271 19.8716 43.9676C20.0972 43.6641 20.2123 43.2932 20.198 42.9159C20.1837 42.5386 20.0408 42.1773 19.7929 41.8917" fill="#2C3243"/>
<path fill-rule="evenodd" clip-rule="evenodd" d="M28.7659 44.1396C28.7717 44.4254 28.6767 44.7042 28.4975 44.9274C28.3183 45.1506 28.0662 45.3042 27.785 45.3613H27.5766C27.3387 45.3667 27.1044 45.303 26.9022 45.178C26.7244 45.0731 26.5761 44.9252 26.4711 44.7479C26.3661 44.5706 26.3077 44.3698 26.3014 44.164C26.3014 43.84 26.4306 43.5293 26.6605 43.3002C26.8905 43.071 27.2023 42.9423 27.5275 42.9423H27.7728C27.6727 42.9743 27.5836 43.0334 27.5155 43.1131C27.4474 43.1928 27.4029 43.2899 27.3872 43.3933C27.3715 43.4968 27.3851 43.6027 27.4264 43.6989C27.4678 43.7951 27.5353 43.8779 27.6214 43.9379C27.7075 43.9979 27.8087 44.0328 27.9136 44.0386C28.0185 44.0444 28.1229 44.0209 28.2151 43.9708C28.3073 43.9206 28.3836 43.8458 28.4355 43.7548C28.4873 43.6637 28.5126 43.56 28.5085 43.4554C28.5133 43.419 28.5133 43.382 28.5085 43.3455C28.6948 43.5555 28.8031 43.8229 28.815 44.1029" fill="#2C3243"/>
<path fill-rule="evenodd" clip-rule="evenodd" d="M9.25835 65.0306C9.16547 65.1541 9.03747 65.2469 8.89098 65.297C8.74448 65.3472 8.58625 65.3522 8.43683 65.3116C8.79241 64.6397 9.09895 63.98 9.39322 63.3569L10.4722 63.5035L10.2393 64.322C10.9627 64.9084 9.92047 65.9713 9.27061 65.0306" fill="#006FA1"/>
<path fill-rule="evenodd" clip-rule="evenodd" d="M23.8742 62.9291C23.734 63.8352 23.5416 64.7326 23.2979 65.6168C23.1918 65.6072 23.0899 65.5707 23.0019 65.5108C22.914 65.451 22.8428 65.3697 22.7952 65.2747C22.7707 65.3557 22.727 65.4296 22.6677 65.4902C22.6085 65.5507 22.5354 65.5961 22.4548 65.6225C22.3741 65.6489 22.2882 65.6555 22.2045 65.6418C22.1207 65.628 22.0415 65.5943 21.9737 65.5435C21.6058 65.3236 21.5322 64.7616 22.1698 64.5661C22.2459 64.1624 22.2459 63.7481 22.1698 63.3444C22.7461 63.2345 23.3102 63.1001 23.8619 62.9535" fill="#006FA1"/>
<path fill-rule="evenodd" clip-rule="evenodd" d="M10.9281 54.4873L7.36005 55.3058C7.45814 54.7601 7.54806 54.2103 7.6298 53.6565L10.9281 54.4873Z" fill="#A2D6F3"/>
<path fill-rule="evenodd" clip-rule="evenodd" d="M8.99977 58.1402L6.75592 58.2135C6.86219 57.7818 6.96437 57.3502 7.06246 56.9185L8.99977 58.1402Z" fill="#A2D6F3"/>
<path fill-rule="evenodd" clip-rule="evenodd" d="M7.56595 61.2799H5.81256C5.94744 60.889 6.08231 60.498 6.20493 60.0582L7.56595 61.2799Z" fill="#A2D6F3"/>
<path fill-rule="evenodd" clip-rule="evenodd" d="M30.8139 31.4952C30.0648 33.6959 28.9589 35.7593 27.5401 37.6036H26.7063C27.1695 39.1577 27.5461 40.7361 27.8343 42.3316C28.4836 42.9778 28.8977 43.8215 29.011 44.7289C29.1243 45.6363 28.9303 46.5555 28.4597 47.3405C29.043 55.497 27.4079 63.6594 23.7267 70.9679C24.0274 71.1008 24.3545 71.1635 24.6831 71.1512C24.933 71.1413 25.1777 71.0771 25.4001 70.9632C25.6225 70.8492 25.8172 70.6882 25.9706 70.4915C26.1862 70.606 26.4276 70.6638 26.6719 70.6593C26.9162 70.6548 27.1553 70.5882 27.3666 70.4659C27.5778 70.3435 27.7542 70.1694 27.879 69.9601C28.0038 69.7508 28.0728 69.5131 28.0796 69.2698C28.0796 68.6589 27.773 67.535 26.4488 67.8282C31.0817 56.3309 32.5915 43.8201 30.8261 31.5563" fill="#006FA1"/>
<path fill-rule="evenodd" clip-rule="evenodd" d="M29.92 55.489C29.8096 56.0632 29.687 56.6252 29.5644 57.1872L25.8859 56.0632L29.92 55.489Z" fill="#A2D6F3"/>
<path fill-rule="evenodd" clip-rule="evenodd" d="M29.1716 58.8121C29.0735 59.2274 28.9632 59.6306 28.8528 60.0338L26.4005 58.641L29.1716 58.8121Z" fill="#A2D6F3"/>
<path fill-rule="evenodd" clip-rule="evenodd" d="M28.3017 61.9884C28.1873 62.3712 28.0687 62.75 27.9461 63.1246L26.2786 61.8174L28.3017 61.9884Z" fill="#A2D6F3"/>
<path fill-rule="evenodd" clip-rule="evenodd" d="M29.5617 57.1872C29.6843 56.6252 29.807 56.0632 29.9173 55.489L28.262 55.7212C28.262 56.0754 28.1762 56.4175 28.1271 56.7596L29.5617 57.1872Z" fill="#4E9CC7"/>
<path fill-rule="evenodd" clip-rule="evenodd" d="M28.8661 60.0459C28.9765 59.6428 29.0868 59.2274 29.1849 58.8242L27.8362 58.7387L27.7136 59.3862L28.8661 60.0459Z" fill="#4E9CC7"/>
<path fill-rule="evenodd" clip-rule="evenodd" d="M27.943 63.1248C28.0657 62.7501 28.1842 62.3714 28.2986 61.9886L27.1338 61.8909L26.9989 62.3918L27.943 63.1248Z" fill="#4E9CC7"/>
<path fill-rule="evenodd" clip-rule="evenodd" d="M23.9123 62.9292C24.0377 62.0421 24.1155 61.149 24.1453 60.2537C24.2801 56.2099 19.6453 54.0231 15.1699 56.4909C22.1221 55.428 22.6494 62.5993 18.505 63.821C19.7397 63.7498 20.9684 63.5988 22.1834 63.369C22.7597 63.259 23.3237 63.1246 23.8632 62.978" fill="#006FA1"/>
<path fill-rule="evenodd" clip-rule="evenodd" d="M20.6624 48.8676C20.3603 48.9419 20.0431 48.9272 19.7492 48.8253C19.4554 48.7234 19.1976 48.5386 19.0071 48.2934C18.3773 48.893 17.5986 49.3147 16.751 49.5151C16.7095 49.7984 16.7262 50.0872 16.8001 50.3639C16.874 50.6406 17.0035 50.8994 17.1809 51.1247C17.3582 51.35 17.5797 51.5371 17.8318 51.6745C18.0839 51.812 18.3614 51.8969 18.6474 51.9243C18.9335 51.9516 19.2221 51.9207 19.4959 51.8336C19.7696 51.7464 20.0227 51.6047 20.2398 51.4171C20.4569 51.2295 20.6335 50.9999 20.7588 50.7423C20.8842 50.4846 20.9556 50.2043 20.969 49.9183C20.9925 49.5545 20.8837 49.1945 20.6624 48.9043" fill="#A2D6F3"/>
<path fill-rule="evenodd" clip-rule="evenodd" d="M20.8448 49.1851C21.1468 49.2595 21.4641 49.2448 21.7579 49.1428C22.0518 49.0409 22.3096 48.8561 22.5001 48.6109C23.2126 49.036 24.0141 49.2911 24.842 49.3562C24.842 49.4906 24.842 50.0648 24.842 50.1991C24.842 50.7613 24.6179 51.3004 24.2189 51.6979C23.82 52.0955 23.2788 52.3188 22.7146 52.3188C22.1504 52.3188 21.6093 52.0955 21.2104 51.6979C20.8114 51.3004 20.5873 50.7613 20.5873 50.1991C20.5637 49.8354 20.6725 49.4754 20.8938 49.1851" fill="#A2D6F3"/>
<path fill-rule="evenodd" clip-rule="evenodd" d="M20.737 50.8222C19.6212 50.2235 18.2111 48.7575 20.8473 48.8675C22.4413 48.953 22.5517 49.4172 20.6879 50.7733" fill="#111314"/>
<path fill-rule="evenodd" clip-rule="evenodd" d="M21.409 49.2096C21.409 49.2707 21.127 49.3196 20.7837 49.3074C20.4403 49.2952 20.1706 49.2341 20.1706 49.1608C20.1706 49.0875 20.4526 49.0508 20.7959 49.063C21.1393 49.0752 21.409 49.1363 21.409 49.2096Z" fill="white"/>
<path d="M10.5941 51.543C13.1447 50.5969 15.8424 50.1048 18.5641 50.0892C16.3156 50.5056 14.1955 51.4384 12.372 52.8136" stroke="#F5F5F5" stroke-width="0.273239" stroke-miterlimit="10"/>
<path d="M29.426 52.6546C27.4451 51.3783 25.1967 50.5717 22.8539 50.2968C24.698 50.7451 26.3719 51.717 27.6726 53.0944" stroke="#F5F5F5" stroke-width="0.273239" stroke-miterlimit="10"/>
<path fill-rule="evenodd" clip-rule="evenodd" d="M56.845 15.259L53.9513 14.3428C53.7445 14.279 53.5253 14.2663 53.3124 14.3056C53.0996 14.3449 52.8996 14.4352 52.7295 14.5686C52.5595 14.702 52.4244 14.8745 52.3361 15.0714C52.2478 15.2683 52.2087 15.4836 52.2224 15.6988C52.2224 16.2608 52.2714 16.8228 52.3695 17.3848C52.6084 20.0568 53.1388 22.6949 53.9513 25.2524C54.833 28.0444 56.2533 30.6381 58.1324 32.888C56.9063 28.3555 55.3 20.6711 56.9063 15.259" fill="#AA3D19"/>
<path fill-rule="evenodd" clip-rule="evenodd" d="M34.3328 0.659711C34.2102 0.207687 33.9895 0 33.7443 0C31.9541 0 28.2021 10.2988 29.4282 19.2171C30.7453 17.9205 32.133 16.697 33.5849 15.5521C32.7756 10.1278 32.4445 3.8361 34.5535 1.14839C34.4922 1.00178 34.4309 0.842965 34.3818 0.708579" fill="#AA3D19"/>
<path fill-rule="evenodd" clip-rule="evenodd" d="M41.3112 38.5687C41.9924 41.014 43.5216 43.1394 45.6272 44.5672C43.9846 42.9616 42.7816 40.9639 42.1327 38.7642L41.3112 38.5687Z" fill="#A31C25"/>
<path fill-rule="evenodd" clip-rule="evenodd" d="M52.3217 17.3847C51.6228 17.2625 51.0098 17.1281 50.3967 16.9815L50.1024 16.9082C50.9835 19.8569 52.2798 22.6663 53.9525 25.2523C53.1284 22.7002 52.5856 20.0661 52.334 17.3969" fill="#E67B07"/>
<path fill-rule="evenodd" clip-rule="evenodd" d="M161 66.9991L156.696 67.2435L155.837 61.6604L151.669 61.7825L150.442 67.3656L145.427 67.2435L150.798 42.5532L157.211 42.7975L161 66.9991ZM155.298 56.4926L153.9 47.3666L152.233 56.7369L155.298 56.4926ZM144.373 61.9169V70.9452H140.547V67.2801H130.738V70.9452H126.913V61.9169H129.365C129.94 56.7031 130.247 51.4633 130.285 46.2182C130.285 44.5689 130.285 43.274 130.383 42.5532L142.227 42.712L142.607 61.9169H144.373ZM133.338 61.9169H136.783L136.477 48.0508H134.196C134.037 53.133 133.828 58.1297 133.313 61.9169H133.338ZM112.334 44.2757C117.238 44.2757 125.576 44.2757 126.116 51.1294C126.21 52.0692 126.073 53.0178 125.716 53.8928C125.359 54.7678 124.794 55.5428 124.068 56.1505C122.358 57.4724 120.292 58.259 118.133 58.4107V67.3412H112.334V44.2757ZM122.4 51.386C122.229 49.3702 120.831 48.4417 118.133 48.0019V54.9899C119.35 54.8886 120.518 54.467 121.518 53.7682C121.855 53.4805 122.113 53.1119 122.267 52.6972C122.422 52.2825 122.468 51.8354 122.4 51.3982V51.386ZM96.7739 55.5153C96.7739 47.8797 99.4347 44.1536 104.866 44.1536C105.508 44.1474 106.144 44.2709 106.736 44.5166C107.328 44.7623 107.864 45.125 108.312 45.5829C110.188 47.4399 110.936 50.9217 110.494 55.6374C109.881 62.43 107.417 65.8752 103.26 65.8752C96.7739 65.8874 96.7739 59.6568 96.7739 55.5275V55.5153ZM100.698 55.1732C100.698 60.0599 101.482 60.854 103.358 60.854C105.811 60.854 106.571 57.189 106.841 55.051C107.221 51.6059 106.46 49.6512 105.614 48.9426C105.436 48.7839 105.204 48.6968 104.965 48.6982C103.493 48.7349 100.698 48.7349 100.698 55.1854V55.1732ZM77.8667 67.3901L77.7686 42.5654L81.5942 42.6265L85.8121 54.1958L90.2876 42.7731L94.1132 42.6753L95.1063 66.9991L91.1827 67.1213L90.6064 52.461L86.9279 60.4997H84.4757L81.7168 54.3913L81.7904 67.3901H77.8667ZM154.158 38.5949L154.084 30.6539L148.284 39.5845L144.606 37.6664L151.632 26.8667C146.065 25.535 145.354 21.87 145.354 20.0985C145.394 19.2184 145.656 18.3623 146.114 17.6089C146.572 16.8555 147.213 16.2287 147.978 15.786C150.515 14.2176 153.509 13.5502 156.475 13.8924H159.822L160.031 38.5949H154.158ZM154.023 23.3849V17.704C152.784 17.8406 151.592 18.2586 150.54 18.9257C150.136 19.2067 149.658 19.6343 149.658 20.1474C149.572 20.8926 149.572 22.884 154.01 23.3727L154.023 23.3849ZM143.613 38.2528L139.309 38.4972L138.451 32.914L134.282 33.0362L133.056 38.6193L128.041 38.4972L133.436 13.7335L139.848 13.9779L143.613 38.2528ZM137.911 27.7341L136.513 18.6203L134.858 27.9662L137.911 27.7341ZM126.986 19.842H122.597L122.731 37.0922H117.827L117.692 19.842H113.069V14.9552H126.998L126.986 19.842ZM97.1663 23.6537C104.437 24.3378 105.283 28.5404 105.283 30.3607C105.24 31.1821 104.994 31.9802 104.566 32.6836C104.138 33.3871 103.542 33.9741 102.831 34.3923C100.842 35.6163 98.5479 36.2597 96.2099 36.2492C95.7545 36.2476 95.2998 36.215 94.8489 36.1515H91.6731L91.5015 15.9204L97.0314 15.8593L97.1663 23.6537ZM100.526 31.5091C100.931 31.2281 101.384 30.825 101.384 30.3607C101.384 29.6155 101.384 27.7585 97.2521 27.2943V32.5964C98.4117 32.4846 99.5309 32.1129 100.526 31.5091ZM111.757 15.2484H106.473V36.1637H111.696L111.757 15.2484ZM83.9239 17.8873C81.8394 17.8873 79.4852 21.9189 79.4852 26.4391C79.4852 30.5928 80.6133 32.6086 82.4157 32.6086C84.868 32.6086 85.4566 31.8634 86.2781 29.2001C87.4636 29.6004 88.6261 30.0654 89.7603 30.5928C89.3557 35.3696 86.5846 38.998 82.6977 38.998C78.8108 38.998 73.6855 34.8687 73.6855 26.0604C73.6855 17.252 79.9266 13.477 84.586 13.477C85.8096 13.5708 86.9807 14.0119 87.9607 14.748C88.9407 15.4841 89.6886 16.4844 90.1159 17.6307L87.0383 19.842C86.2781 19.1578 86.0083 17.8873 83.9239 17.8873Z" fill="#0171A3"/>
</svg>
