<svg width="20" height="20" viewBox="0 0 20 20" fill="none" xmlns="http://www.w3.org/2000/svg">
<g clip-path="url(#clip0_14219_8621)">
<path d="M10.0001 2.5C7.06407 2.5 4.68945 4.78007 4.68945 7.59919C4.68945 11.4236 10.0001 17.0691 10.0001 17.0691C10.0001 17.0691 15.3107 11.4236 15.3107 7.59919C15.3107 4.78007 12.9361 2.5 10.0001 2.5ZM6.20678 7.59919C6.20678 5.58865 7.90619 3.95691 10.0001 3.95691C12.094 3.95691 13.7934 5.58865 13.7934 7.59919C13.7934 9.69714 11.6085 12.8368 10.0001 14.7963C8.42208 12.8514 6.20678 9.67529 6.20678 7.59919Z" fill="#FE9015"/>
<path d="M9.99975 9.45744C10.9405 9.45744 11.7031 8.69482 11.7031 7.75408C11.7031 6.81334 10.9405 6.05072 9.99975 6.05072C9.05901 6.05072 8.29639 6.81334 8.29639 7.75408C8.29639 8.69482 9.05901 9.45744 9.99975 9.45744Z" fill="#FE9015"/>
</g>
<defs>
<clipPath id="clip0_14219_8621">
<rect width="20" height="20" fill="white"/>
</clipPath>
</defs>
</svg>
