<svg width="20" height="20" viewBox="0 0 20 20" fill="none" xmlns="http://www.w3.org/2000/svg">
<path d="M10 2.5C5.875 2.5 2.5 5.875 2.5 10C2.5 14.125 5.875 17.5 10 17.5C14.125 17.5 17.5 14.125 17.5 10C17.5 5.875 14.125 2.5 10 2.5ZM10 16C6.6925 16 4 13.3075 4 10C4 6.6925 6.6925 4 10 4C13.3075 4 16 6.6925 16 10C16 13.3075 13.3075 16 10 16Z" fill="#219653"/>
<path fill-rule="evenodd" clip-rule="evenodd" d="M9.03564 5.86261H10.5356V9.8302L13.2844 11.1924L12.6184 12.5364L9.03564 10.7609V5.86261Z" fill="#219653"/>
</svg>
