<svg width="24" height="24" viewBox="0 0 24 24" fill="none" xmlns="http://www.w3.org/2000/svg">
<path fill-rule="evenodd" clip-rule="evenodd" d="M5.97803 7.96324C5.97803 4.66983 8.64786 2 11.9413 2C15.2347 2 17.9045 4.66983 17.9045 7.96324C17.9045 11.2566 15.2347 13.9265 11.9413 13.9265C8.64786 13.9265 5.97803 11.2566 5.97803 7.96324ZM11.9413 4C9.75243 4 7.97803 5.7744 7.97803 7.96324C7.97803 10.1521 9.75243 11.9265 11.9413 11.9265C14.1301 11.9265 15.9045 10.1521 15.9045 7.96324C15.9045 5.7744 14.1301 4 11.9413 4Z" fill="#FE9015"/>
<path fill-rule="evenodd" clip-rule="evenodd" d="M11.0588 14C7.69772 14 5 16.678 5 19.9485H3C3 15.5439 6.62296 12 11.0588 12H12.8235C17.2594 12 20.8824 15.5439 20.8824 19.9485H18.8824C18.8824 16.678 16.1846 14 12.8235 14H11.0588Z" fill="#FE9015"/>
</svg>
