<svg width="20" height="20" viewBox="0 0 20 20" fill="none" xmlns="http://www.w3.org/2000/svg">
<rect x="1.01172" y="7.92447" width="5.58821" height="1.64477" fill="#2F3D54"/>
<path fill-rule="evenodd" clip-rule="evenodd" d="M15.6863 5.38879C16.4951 6.64506 16.6421 7.95801 16.6421 7.95801C17.598 8.03719 18.3332 8.90815 18.3332 9.85828V15.7531H16.8627C16.5686 16.7032 15.7598 17.4158 14.7304 17.4158C13.7011 17.4158 12.8923 16.7032 12.5982 15.7531H8.9954C8.7013 16.7032 7.89251 17.4158 6.86314 17.4158C5.83378 17.4158 5.02499 16.7032 4.73088 15.5155H3.11331L3.1133 10.3727H4.5103V14.2487H4.80441C5.17204 13.3777 5.98083 12.8235 6.86314 12.8235C7.81898 12.8235 8.55424 13.3777 8.92188 14.2487H12.6717C13.0393 13.3777 13.8481 12.8235 14.7304 12.8235C15.6863 12.8235 16.4215 13.3777 16.7892 14.2487H16.9362V9.85828C16.9362 9.62075 16.7157 9.46239 16.4951 9.46239H11.7159V4.83454H4.5103V9.53145H3.11329L3.11328 3.33023C3.32648 3.33002 3.99076 3.33007 4.56752 3.33012C4.79317 3.33014 5.00543 3.33016 5.17204 3.33016H10.0983H11.8629H12.01C13.554 3.33016 14.8775 4.13252 15.6863 5.38879ZM14.4363 6.25975C13.9217 5.44091 13.7011 5.30961 13.1864 5.07208V8.03719H14.951C14.951 8.03719 14.951 7.07858 14.4363 6.25975ZM6.05435 15.1196C6.05435 15.5947 6.46548 15.9114 6.86314 15.9114C7.2608 15.9114 7.61964 15.5734 7.61964 15.1196C7.61964 14.6658 7.24493 14.3279 6.86314 14.3279C6.42198 14.3279 6.05435 14.6446 6.05435 15.1196ZM14.7304 15.9114C14.8775 15.9114 15.0981 15.9114 15.2451 15.6739C15.3922 15.5155 15.4657 15.3572 15.4657 15.1196C15.4657 14.8821 15.3922 14.7237 15.2451 14.5654C15.0981 14.407 14.8775 14.3279 14.7304 14.3279C14.2893 14.3279 13.9217 14.6446 13.9217 15.1196C13.9217 15.5947 14.3628 15.9114 14.7304 15.9114Z" fill="#2F3D54"/>
</svg>
